# xmcd CD database file
#
# Track frame offsets:
#	150
#	33635
#	67855
#	108185
#	158610
#	197740
#	212162
#	235180
#	270962
#
# Disc length: 3674 seconds
#
# Revision: 0
# Processed by: cddbd v1.5.2PL0 Copyright (c) Steve Scherf et al.
# Submitted via: CDex 1.70beta2
#
DISCID=6f0e5809
DTITLE=Ben Wolfe Quintet - Live At Smalls
DYEAR=2010
DGENRE=Jazz
TTITLE0=Block 11
TTITLE1=For The Great Sonny Clark
TTITLE2=Telescope
TTITLE3=Contraption
TTITLE4=Unjust
TTITLE5=I'll Know You More
TTITLE6=Double Czech
TTITLE7=Coleman's Cab
TTITLE8=The Trade
EXTD=YEAR: 2010
EXTT0=
EXTT1=
EXTT2=
EXTT3=
EXTT4=
EXTT5=
EXTT6=
EXTT7=
EXTT8=
PLAYORDER=
